<?xml version="1.0" encoding="utf-8"?>
<!-- Generator: Adobe Illustrator 17.0.0, SVG Export Plug-In . SVG Version: 6.00 Build 0)  -->
<!DOCTYPE svg PUBLIC "-//W3C//DTD SVG 1.1//EN" "http://www.w3.org/Graphics/SVG/1.1/DTD/svg11.dtd">
<svg version="1.1" id="Layer_1" xmlns="http://www.w3.org/2000/svg" xmlns:xlink="http://www.w3.org/1999/xlink" x="0px" y="0px"
	 width="500px" height="500px" viewBox="0 0 500 500" enable-background="new 0 0 500 500" xml:space="preserve">
<g>
	<path fill="#C42032" d="M396.572,192.313L254.513,334.372l-26.685,26.685c-3.532,3.532-8.438,5.494-13.343,5.494
		s-9.811-1.962-13.342-5.494l-26.685-26.685l-71.029-71.029c-3.532-3.531-5.494-8.437-5.494-13.342
		c0-4.906,1.962-9.812,5.494-13.343l26.685-26.686c3.532-3.532,8.438-5.494,13.343-5.494s9.811,1.962,13.342,5.494l57.687,57.883
		l128.716-128.912c3.532-3.532,8.438-5.494,13.343-5.494s9.811,1.962,13.342,5.494l26.686,26.685
		c3.531,3.532,5.493,8.437,5.493,13.343C402.065,183.876,400.103,188.781,396.572,192.313z"/>
</g>
</svg>
