<svg id="Layer_1" data-name="Layer 1" xmlns="http://www.w3.org/2000/svg" viewBox="0 0 150 150"><defs><style>.cls-1{fill:#fff;}</style></defs><title>info-icon</title><path class="cls-1" d="M75,131.43A56.43,56.43,0,1,1,131.43,75,56.45,56.45,0,0,1,75,131.43ZM93.81,98.51a2.32,2.32,0,0,0-2.35-2.35H84.41V58.55a2.32,2.32,0,0,0-2.35-2.36H58.54a2.32,2.32,0,0,0-2.35,2.36V70.3a2.32,2.32,0,0,0,2.35,2.35h7.05V96.17H58.54a2.32,2.32,0,0,0-2.35,2.35v11.75a2.32,2.32,0,0,0,2.35,2.36H91.46a2.32,2.32,0,0,0,2.35-2.36ZM84.41,32.68a2.32,2.32,0,0,0-2.35-2.35H67.95a2.32,2.32,0,0,0-2.35,2.35V44.43a2.32,2.32,0,0,0,2.35,2.36H82.05a2.32,2.32,0,0,0,2.35-2.36Z"/></svg>