<?xml version="1.0" encoding="utf-8"?>
<!-- Generator: Adobe Illustrator 20.0.0, SVG Export Plug-In . SVG Version: 6.00 Build 0)  -->
<svg version="1.1" id="Layer_1" xmlns="http://www.w3.org/2000/svg" xmlns:xlink="http://www.w3.org/1999/xlink" x="0px" y="0px"
	 viewBox="0 0 100 100" style="enable-background:new 0 0 100 100;" xml:space="preserve">
<style type="text/css">
	.st0{fill:#FFFFFF;}
</style>
<g>
	<path class="st0" d="M39.3,51.5H68c1.1,0,2-0.9,2-2s-0.9-2-2-2H39l8-7.9c0.8-0.8,0.8-2,0-2.7s-2-0.7-2.8,0L32.9,48.3
		c-0.4,0.4-0.6,0.9-0.6,1.4s0.2,1,0.6,1.4l11.3,11.3c0.4,0.4,0.9,0.6,1.4,0.6s1-0.2,1.4-0.6c0.8-0.8,0.8-2.2,0-3L39.3,51.5z"/>
	<path class="st0" d="M84.4,49.8c0-18.4-15-33.5-33.5-33.5c-18.4,0-33.5,15-33.5,33.5c0,18.4,15,33.5,33.5,33.5
		C69.4,83.2,84.4,68.2,84.4,49.8z M21.5,49.8c0-16.2,13.2-29.5,29.5-29.5s29.5,13.2,29.5,29.5C80.4,66,67.2,79.2,51,79.2
		S21.5,66,21.5,49.8z"/>
</g>
</svg>
