<?xml version="1.0" encoding="utf-8"?>
<!-- Generator: Adobe Illustrator 20.0.0, SVG Export Plug-In . SVG Version: 6.00 Build 0)  -->
<svg version="1.1" id="Layer_1" xmlns="http://www.w3.org/2000/svg" xmlns:xlink="http://www.w3.org/1999/xlink" x="0px" y="0px"
	 viewBox="0 0 100 100" style="enable-background:new 0 0 100 100;" xml:space="preserve">
<style type="text/css">
	.st0{fill:#FFFFFF;}
</style>
<g>
	<path class="st0" d="M54.9,59.5c-0.8,0.8-0.8,2.2,0,3c0.4,0.4,0.9,0.6,1.4,0.6s1-0.2,1.4-0.6l11.3-11.3c0.4-0.4,0.6-0.9,0.6-1.4
		c0-0.5-0.2-1.1-0.6-1.4L57.7,37c-0.8-0.8-2-0.8-2.8,0s-0.8,2,0,2.7l8,7.9H34c-1.1,0-2,0.9-2,2s0.9,2,2,2h28.7L54.9,59.5z"/>
	<path class="st0" d="M51,83.2c18.4,0,33.5-15,33.5-33.5c0-18.4-15-33.5-33.5-33.5c-18.4,0-33.5,15-33.5,33.5
		C17.5,68.2,32.5,83.2,51,83.2z M51,79.2c-16.2,0-29.5-13.2-29.5-29.5c0-16.2,13.2-29.5,29.5-29.5s29.5,13.2,29.5,29.5
		C80.4,66,67.2,79.2,51,79.2z"/>
</g>
</svg>
